Coordinates
version=1
nRows=9
nColumns=42
inDegrees=yes

Units are S.I. units (second, meters, Newtons, ...)
If the header above contains a line with 'inDegrees', this indicates whether rotational values are in degrees (yes) or radians (no).

endheader
time	pelvis_tilt	pelvis_list	pelvis_rotation	pelvis_tx	pelvis_ty	pelvis_tz	hip_flexion_r	hip_adduction_r	hip_rotation_r	knee_angle_r	knee_adduction_r	knee_angle_r_beta	ankle_angle_r	subtalar_angle_r	mtp_angle_r	hip_flexion_l	hip_adduction_l	hip_rotation_l	knee_angle_l	knee_adduction_l	knee_angle_l_beta	ankle_angle_l	subtalar_angle_l	mtp_angle_l	lumbar_extension	lumbar_bending	lumbar_rotation	arm_flex_r	arm_add_r	arm_rot_r	elbow_flex_r	pro_sup_r	wrist_flex_r	wrist_dev_r	arm_flex_l	arm_add_l	arm_rot_l	elbow_flex_l	pro_sup_l	wrist_flex_l	wrist_dev_l
      0.60000000	     14.88851227	      0.63583684	      7.03723406	     -0.47356006	      0.95696780	     -0.14168895	      9.45788305	      0.74160335	    -11.39745643	     28.75952148	      0.65285263	      0.50194834	      1.76377742	     -5.16719318	     -8.13072057	    -25.17681078	     -4.28746515	     -3.51132322	     42.16257455	     -0.29086208	      0.73587575	     -6.42253853	     13.77760821	     -8.13072057	    -30.32550691	      6.96248894	      3.65756119	     -9.83457453	    -20.19220417	    -13.69076842	     64.30326780	     90.00000001	      0.00000000	      0.00000000	      3.77303947	    -21.51611543	      7.15147420	     72.84562800	     90.00000001	      0.00000000	      0.00000000
      0.61000000	     14.64803163	      0.32222287	      6.88683089	     -0.45916554	      0.95833516	     -0.14026377	      9.00801075	      1.34768611	    -12.02616396	     29.08424311	      0.12686696	      0.50761580	      2.95400816	     -3.95391316	     -8.09814015	    -23.11545994	     -4.55279457	     -2.32196951	     46.03957630	      0.06075691	      0.80354219	     -7.49679671	     10.61386964	     -8.09814015	    -30.13854382	      7.20779662	      4.13561665	     -9.47161564	    -20.31929687	    -13.41839572	     64.14825190	     90.00000001	      0.00000000	      0.00000000	      3.07327601	    -21.19904016	      6.69679383	     72.45012347	     90.00000001	      0.00000000	      0.00000000
      0.62000000	     14.57177161	     -0.00511361	      6.79104110	     -0.44493385	      0.96005910	     -0.13892315	      8.16664404	      1.95911912	    -12.57240279	     29.00381263	     -0.22771798	      0.50621203	      4.22525901	     -2.80601601	     -8.07327772	    -21.15195643	     -4.83161480	     -1.69249577	     49.69180757	     -0.04427310	      0.86728565	     -8.05538474	      8.82548206	     -8.07327772	    -30.13540705	      7.49923891	      4.58702540	     -9.13945346	    -20.44902836	    -13.24944977	     64.22423932	     90.00000001	      0.00000000	      0.00000000	      2.45835440	    -20.99607664	      6.46554512	     71.99966897	     90.00000001	      0.00000000	      0.00000000
      0.63000000	     14.48007238	     -0.15085237	      6.71337889	     -0.43095296	      0.96191320	     -0.13775191	      7.28074523	      2.29358522	    -13.34017398	     28.85924697	     -0.58112194	      0.50368888	      5.57912884	     -1.16218585	     -8.03621348	    -19.14856705	     -4.85986717	     -0.99237825	     53.06838284	     -0.15794605	      0.92621801	     -8.07993614	      7.13725070	     -8.03621348	    -30.13585822	      7.60708677	      4.91135949	     -8.77314714	    -20.55280783	    -13.04705818	     64.33991157	     90.00000001	      0.00000000	      0.00000000	      1.87929507	    -20.82691591	      6.29586061	     71.46364168	     90.00000001	      0.00000000	      0.00000000
      0.64000000	     14.57992135	     -0.34576784	      6.57109995	     -0.41707958	      0.96426886	     -0.13640106	      5.96327878	      2.72893588	    -13.42825738	     28.24526736	     -0.54539000	      0.49297291	      6.50010701	     -0.52140582	     -8.02461144	    -17.36928861	     -4.93757601	     -0.98165437	     55.97507029	     -0.70714488	      0.97694928	     -7.63348169	      6.22372871	     -8.02461144	    -30.36371285	      7.73025206	      5.34622374	     -8.43310039	    -20.69385293	    -12.84443901	     64.57369007	     90.00000001	      0.00000000	      0.00000000	      1.39589474	    -20.68113064	      6.22169330	     70.87113453	     90.00000001	      0.00000000	      0.00000000
      0.65000000	     14.45746418	     -0.57658418	      6.40740640	     -0.40351644	      0.96629875	     -0.13486438	      5.00146734	      3.23185548	    -13.76992460	     27.74673351	     -0.82466212	      0.48427186	      7.22751523	      0.59976512	     -7.99806595	    -15.29248804	     -5.08992880	     -0.84236980	     58.66211359	     -0.96456565	      1.02384703	     -6.82714807	      5.18238332	     -7.99806595	    -30.36486201	      7.82446792	      5.75341840	     -8.04007046	    -20.83385891	    -12.54766952	     64.77471980	     90.00000001	      0.00000000	      0.00000000	      0.92737715	    -20.53489725	      6.09671265	     70.18083984	     90.00000001	      0.00000000	      0.00000000
      0.66000000	     14.58787279	     -0.60985200	      6.19463681	     -0.39000488	      0.96896775	     -0.13346290	      3.56237163	      3.46795077	    -13.57496814	     26.95306190	     -0.66035449	      0.47041967	      7.87115837	      1.10695113	     -7.98737882	    -13.59181362	     -4.97300242	     -1.06089552	     60.67894398	     -1.53659472	      1.05904736	     -5.84312198	      4.47854300	     -7.98737882	    -30.66156081	      7.72291636	      6.13584476	     -7.67274586	    -20.96653294	    -12.29050420	     65.06207749	     90.00000001	      0.00000000	      0.00000000	      0.53858170	    -20.42076380	      6.08441037	     69.44959594	     90.00000001	      0.00000000	      0.00000000
      0.67000000	     14.66636908	     -0.70357677	      5.94414628	     -0.37664807	      0.97155642	     -0.13187404	      2.17414575	      3.81681846	    -13.24076767	     26.06856485	     -0.56341730	      0.45498229	      8.30721946	      1.54724845	     -7.97541263	    -11.83576580	     -4.95178337	     -1.35412660	     62.30417909	     -2.00402320	      1.08741306	     -4.69979167	      3.89860985	     -7.97541263	    -30.90643219	      7.63295945	      6.54055691	     -7.28629067	    -21.11617216	    -11.96295480	     65.40578710	     90.00000001	      0.00000000	      0.00000000	      0.17436002	    -20.31235957	      6.06305775	     68.65475179	     90.00000001	      0.00000000	      0.00000000
      0.68000000	     14.76002590	     -0.81444102	      5.65218658	     -0.36342990	      0.97421101	     -0.13014605	      0.69461562	      4.20642801	    -12.65028926	     24.97158347	     -0.39998310	      0.43583635	      8.48619435	      1.63264900	     -7.95414593	    -10.12692763	     -4.96596915	     -1.79752715	     63.47459838	     -2.48421776	      1.10784073	     -3.42195562	      3.65574879	     -7.95414593	    -31.17829513	      7.51750726	      6.96462163	     -6.91559264	    -21.28880619	    -11.59813092	     65.81805212	     90.00000001	      0.00000000	      0.00000000	     -0.15308055	    -20.26086570	      6.02856966	     67.83189711	     90.00000001	      0.00000000	      0.00000000
